<?xml version="1.0" encoding="UTF-8" standalone="no"?>
<!DOCTYPE svg  PUBLIC '-//W3C//DTD SVG 1.1//EN'  'http://www.w3.org/Graphics/SVG/1.1/DTD/svg11.dtd'>
<svg id="Layer_1" xmlns="http://www.w3.org/2000/svg" xml:space="preserve" height="169.59px" viewBox="0 0 180.739 169.588" width="180.74px" version="1.1" y="0px" x="0px" enable-background="new 0 0 180.739 169.588">
<g clip-rule="evenodd" fill-rule="evenodd">
	<path fill="#A6A6A6" d="m118.35 140.93h-36.105c2.847 4.406 4.443 9.032 3.596 14.062-0.845 5.012-3.521 8.945-7.81 11.685-6.566 4.194-14.646 3.731-20.493-1.089-6.823-5.624-7.771-13.222-3.038-24.361-8.538-1.634-9.333-3.205-6.095-11.782 1.41-3.733 2.713-7.507 4.047-11.268 0.107-0.301 0.073-0.65 0.132-1.26-6.111 0.049-7.847-3.751-8.802-9.165-4.816-27.296-10.034-54.521-14.886-81.812-0.771-4.335-2.762-6.523-6.87-7.837-5.849-1.872-11.499-4.363-17.228-6.606-3.507-1.374-5.671-3.667-4.462-7.672 1.048-3.481 4.584-4.725 8.583-3.176 8.063 3.124 16.07 6.396 24.171 9.418 3.497 1.303 5.245 3.464 5.911 7.192 4.931 27.613 10.056 55.19 15.036 82.794 0.623 3.451 1.954 4.85 5.826 4.82 27.324-0.2 54.651-0.162 81.975-0.037 3.476 0.016 5.258-0.774 6.382-4.411 5.743-18.578 11.732-37.083 17.859-55.538 1.206-3.632 0.129-4.145-3.185-4.263-26.605-0.948-53.212-1.916-79.803-3.199-6.313-0.305-12.622-0.688-18.943-0.807-4.025-0.076-7.097-1.772-7.01-6.059 0.086-4.272 3.185-5.955 7.233-5.763 17.942 0.852 35.879 1.784 53.823 2.605 10.973 0.501 21.952 0.838 32.928 1.275 7.813 0.311 15.629 0.582 23.435 1.033 5.146 0.297 7.261 3.52 5.655 8.558-7.673 24.069-15.487 48.094-23.047 72.199-1.463 4.665-4.19 6.19-8.822 6.171-26.158-0.11-52.32 0.135-78.475-0.208-5.354-0.07-7.593 1.609-9.005 6.553-2.249 7.869-2.554 7.781 5.664 7.781 26.326 0 52.652 0 78.977 0.001 1.167 0 2.333-0.019 3.499 0.009 3.459 0.08 6.77 1.048 6.655 5.063-0.11 3.885-3.229 5.04-6.823 4.828-0.653-0.038-1.314 0.067-2.567 0.142 5.729 9.752 5.313 18.604-3.932 25.555-6.25 4.699-14.917 4.097-20.87-0.799-6.73-5.52-7.65-12.51-3.12-24.63z"/>
	<path fill="#FDFDFD" d="m76.101 152.36c-0.09 4.535-3.068 7.438-7.534 7.345-4.275-0.09-7.609-3.379-7.622-7.518-0.013-4.319 3.596-7.724 8.015-7.56 4.49 0.17 7.232 3.14 7.141 7.74z"/>
	<path fill="#FEFEFE" d="m132.38 159.69c-4.222-0.03-7.429-3.329-7.457-7.672-0.027-4.202 3.348-7.448 7.678-7.384 4.337 0.065 7.491 3.303 7.44 7.636-0.05 4.29-3.3 7.44-7.66 7.41z"/>
</g>
</svg>
