<?xml version="1.0" encoding="utf-8"?>
<!DOCTYPE svg PUBLIC "-//W3C//DTD SVG 1.1//EN" "http://www.w3.org/Graphics/SVG/1.1/DTD/svg11.dtd">
<svg version="1.1" id="Layer_1" xmlns="http://www.w3.org/2000/svg" xmlns:xlink="http://www.w3.org/1999/xlink" x="0px" y="0px"
	 width="198.425px" height="198.425px" viewBox="0 0 198.425 198.425" enable-background="new 0 0 198.425 198.425"
	 xml:space="preserve">
<g>
	<polyline fill="#F9D20A" points="198.425,136.926 198.425,160.762 116.061,160.762 116.061,37.484 143.813,37.484 143.813,136.926
			"/>
	<path d="M41.093,162.363c-6.76,0-13.493-0.207-20.191-0.621c-6.702-0.417-13.669-1.393-20.903-2.935V39.263
		c5.693-1.067,11.919-1.868,18.679-2.401s13.044-0.8,18.857-0.8c7.827,0,15.031,0.564,21.613,1.69
		c6.582,1.128,12.245,3.055,16.989,5.781c4.74,2.729,8.45,6.314,11.118,10.763c2.669,4.447,4.002,9.934,4.002,16.455
		c0,9.845-4.745,17.611-14.231,23.303c7.827,2.966,13.164,6.998,16.011,12.097c2.846,5.1,4.269,10.851,4.269,17.255
		c0,12.927-4.714,22.654-14.142,29.175C73.736,159.104,59.709,162.363,41.093,162.363 M27.04,85.871h13.519
		c8.538,0,14.646-1.095,18.321-3.291c3.676-2.193,5.517-5.72,5.517-10.585c0-4.98-1.898-8.476-5.692-10.495
		c-3.797-2.016-9.37-3.024-16.723-3.024c-2.374,0-4.922,0.03-7.648,0.089c-2.73,0.061-5.16,0.208-7.293,0.444V85.871z M27.04,107.04
		v31.844c2.015,0.239,4.208,0.417,6.582,0.533c2.371,0.12,4.98,0.178,7.827,0.178c8.299,0,15.001-1.185,20.102-3.559
		c5.096-2.372,7.648-6.759,7.648-13.164c0-5.691-2.135-9.752-6.405-12.185c-4.269-2.431-10.378-3.648-18.322-3.648L27.04,107.04
		L27.04,107.04z"/>
</g>
</svg>
