<?xml version="1.0" encoding="UTF-8" standalone="no"?>
<!DOCTYPE svg  PUBLIC '-//W3C//DTD SVG 1.1//EN'  'http://www.w3.org/Graphics/SVG/1.1/DTD/svg11.dtd'>
<svg id="Layer_1" xmlns="http://www.w3.org/2000/svg" xml:space="preserve" height="112px" viewBox="0 0 90.034 112.003" width="90.034px" version="1.1" y="0px" x="0px" enable-background="new 0 0 90.034 112.003">
<g clip-rule="evenodd" fill-rule="evenodd">
	<path fill="#3D8AD9" d="m45.048 111.78c-13.317 0.058-26.636 0.033-39.951 0.219-4.472 0.063-5.107-2.329-5.097-6.036 0.083-29.306 0.046-58.611 0.046-87.917 0-4.329 0.108-8.662-0.036-12.986-0.121-3.652 1.53-5.089 5.086-5.057 13.317 0.122 26.634 0.141 39.951 0.199-0.003 5.203-0.006 10.407-0.01 15.61-8.446 1.67-11.683 4.903-12.027 12.091-0.078 1.631 0.005 3.272 0.014 4.908-2.616 0.593-3.904 2.094-3.833 4.911 0.121 4.795 0.087 9.596 0.016 14.392-0.051 3.434 1.708 4.698 4.933 4.674 3.634-0.025 7.269 0.112 10.903 0.18-0.347 4.504 0.768 9.115-0.991 13.518-2.506 0.817-6.737-0.761-6.762 3.643-0.026 4.711 4.458 2.27 6.759 3.388 1.193 3.486 1.658 6.97-0.023 10.45-2.677 0.541-6.896-0.661-6.677 3.763 0.191 3.872 3.994 2.976 6.68 3.142 0.327 0.021 0.651 0.079 0.978 0.121 0.013 5.6 0.027 11.19 0.041 16.79zm-22.082-42.197c-3.491-0.497-4.747 1.103-4.617 4.517 0.125 3.28 1.162 5.485 4.79 5.412 3.436-0.068 4.178-2.368 4.32-5.316 0.16-3.295-0.881-5.146-4.493-4.613zm-0.44 17.615c-3.733-0.768-4.084 1.544-4.193 4.625-0.137 3.898 2.064 4.027 5.016 4.131 3.479 0.121 4.046-1.624 4.118-4.535 0.086-3.529-1.412-4.831-4.941-4.221z"/>
	<path fill="#2E6AC4" d="m44.051 70.483c1.759-4.402 0.645-9.014 0.991-13.518 3.646-0.058 7.294-0.214 10.938-0.144 3.603 0.069 5.108-1.542 5.005-5.125-0.136-4.642-0.081-9.291-0.014-13.936 0.038-2.703-0.934-4.481-3.783-4.874-0.174-11.833-2.7-15.386-12.149-17.078 0.003-5.204 0.006-10.407 0.009-15.61 13.462-0.055 26.925-0.073 40.387-0.193 3.468-0.031 4.604 1.55 4.598 4.888-0.067 34.082-0.068 68.163 0.002 102.24 0.007 3.355-1.123 4.89-4.6 4.854-13.462-0.136-26.924-0.148-40.387-0.207-0.014-5.6-0.028-11.197-0.043-16.795 0.001 0-0.097-0.297-0.097-0.297 8.44 0.061 16.88 0.108 25.32 0.188 2.481 0.022 4.053-0.545 3.97-3.625-0.08-2.971-1.85-3.139-3.945-3.125-8.438 0.053-16.875 0.144-25.313 0.22-0.308-0.121-0.613-0.25-0.915-0.387 1.681-3.48 1.216-6.964 0.023-10.45 0.336-0.147 0.673-0.294 1.009-0.44 8.495 0.063 16.989 0.145 25.483 0.176 2.209 0.008 4.462 0.019 4.441-3.229-0.021-3.18-2.185-3.292-4.446-3.28-8.494 0.046-16.988 0.121-25.482 0.186-0.334-0.134-0.668-0.282-1.002-0.429z"/>
	<path fill="#FADB4C" d="m57.188 32.887c2.85 0.393 3.821 2.171 3.783 4.874-0.067 4.645-0.122 9.294 0.014 13.936 0.104 3.583-1.402 5.194-5.005 5.125-3.644-0.07-7.292 0.086-10.938 0.144-3.635-0.067-7.27-0.205-10.903-0.18-3.225 0.023-4.983-1.24-4.933-4.674 0.071-4.796 0.105-9.597-0.016-14.392-0.071-2.817 1.218-4.318 3.833-4.909 2.027-0.144 4.244 0.939 6.01-0.919 1.817 1.512 3.912 1.235 6.011 0.938 1.752-0.038 3.672 0.993 5.146-0.809 2.183 1.496 4.621 0.94 6.998 0.866z"/>
	<path fill="#F8971D" d="m39.033 31.891c-1.766 1.858-3.983 0.775-6.01 0.919-0.008-1.638-0.091-3.278-0.013-4.91 0.344-7.188 3.582-10.422 12.027-12.091 9.45 1.692 11.977 5.245 12.15 17.078-2.377 0.074-4.814 0.629-6.997-0.867-0.061-1.312-0.188-2.623-0.167-3.932 0.056-3.409-1.252-5.375-4.981-4.921-5.993 0.16-6.127 4.354-6.009 8.724z"/>
	<path fill="#FEFEFE" d="m22.966 69.583c3.612-0.533 4.653 1.317 4.493 4.612-0.143 2.948-0.884 5.248-4.32 5.316-3.628 0.073-4.665-2.132-4.79-5.412-0.129-3.413 1.126-5.013 4.617-4.516z"/>
	<path fill="#FEFEFE" d="m22.526 87.198c3.529-0.609 5.027 0.692 4.94 4.221-0.071 2.911-0.639 4.656-4.118 4.535-2.952-0.104-5.152-0.232-5.016-4.131 0.109-3.081 0.461-5.393 4.194-4.625z"/>
	<path fill="#FEFEFE" d="m44.025 87.963c0.301 0.137 0.607 0.266 0.915 0.387-0.011 2.113-0.021 4.228-0.031 6.342 0 0 0.098 0.297 0.097 0.297-0.326-0.042-0.65-0.101-0.978-0.121-2.686-0.166-6.488 0.73-6.68-3.142-0.22-4.424 4-3.222 6.677-3.763z"/>
	<path fill="#FEFEFE" d="m45.057 77.073c-0.336 0.146-0.673 0.293-1.009 0.44-2.301-1.118-6.785 1.323-6.759-3.388 0.024-4.403 4.256-2.825 6.762-3.643 0.334 0.147 0.668 0.295 1.001 0.442 0.002 2.051 0.004 4.099 0.005 6.149z"/>
	<path fill="#DDD8DF" d="m44.908 94.692c0.011-2.114 0.021-4.229 0.031-6.342 8.438-0.076 16.876-0.167 25.313-0.22 2.096-0.014 3.865 0.154 3.945 3.125 0.083 3.08-1.488 3.647-3.97 3.625-8.439-0.08-16.878-0.128-25.319-0.188z"/>
	<path fill="#DDD8DF" d="m45.057 77.073c-0.001-2.05-0.003-4.098-0.005-6.147 8.495-0.064 16.989-0.14 25.483-0.186 2.262-0.012 4.426 0.101 4.446 3.28 0.021 3.247-2.232 3.236-4.441 3.229-8.494-0.032-16.988-0.114-25.483-0.176z"/>
	<path fill="#3D8AD9" d="m39.033 31.891c-0.119-4.37 0.016-8.564 6.009-8.725 0.001 3.22 0.001 6.441 0.002 9.662-2.099 0.298-4.194 0.575-6.011-0.937z"/>
	<path fill="#2E6AC4" d="m45.044 32.829c-0.001-3.221-0.001-6.442-0.002-9.662 3.729-0.453 5.037 1.513 4.981 4.921-0.021 1.309 0.106 2.621 0.167 3.932-1.474 1.801-3.394 0.771-5.146 0.809z"/>
</g>
</svg>
