<?xml version="1.0" encoding="UTF-8" standalone="no"?>
<!DOCTYPE svg  PUBLIC '-//W3C//DTD SVG 1.1//EN'  'http://www.w3.org/Graphics/SVG/1.1/DTD/svg11.dtd'>
<svg id="Layer_1" xmlns="http://www.w3.org/2000/svg" xml:space="preserve" height="27.083px" viewBox="3.615 6.252 169.509 27.083" width="169.51px" version="1.1" y="0px" x="0px" enable-background="new 3.615 6.252 169.509 27.083">
<path d="m12.28 33.184c-1.425 0-2.845-0.045-4.257-0.132-1.413-0.089-2.882-0.294-4.408-0.618v-25.209c1.201-0.226 2.514-0.394 3.939-0.507 1.425-0.112 2.751-0.168 3.976-0.168 1.65 0 3.169 0.119 4.558 0.356 1.388 0.239 2.582 0.645 3.582 1.219 1 0.576 1.782 1.332 2.344 2.27 0.563 0.938 0.845 2.095 0.845 3.47 0 2.077-1.001 3.713-3.001 4.914 1.651 0.625 2.776 1.476 3.376 2.551s0.9 2.289 0.9 3.64c0 2.726-0.994 4.775-2.982 6.15-1.989 1.374-4.946 2.064-8.872 2.064m-2.963-16.132h2.851c1.8 0 3.088-0.231 3.863-0.694 0.775-0.461 1.163-1.205 1.163-2.231 0-1.05-0.4-1.788-1.2-2.213-0.801-0.425-1.976-0.639-3.526-0.639-0.501 0-1.039 0.007-1.613 0.02-0.575 0.013-1.087 0.043-1.538 0.093v5.664zm0 4.466v6.715c0.425 0.05 0.887 0.086 1.388 0.11 0.5 0.025 1.05 0.039 1.65 0.039 1.75 0 3.163-0.25 4.239-0.751 1.075-0.502 1.613-1.425 1.613-2.777 0-1.199-0.45-2.056-1.351-2.568-0.9-0.512-2.188-0.768-3.863-0.768h-3.676z" fill="#333"/>
<rect y="6.849" x="28.822" height="25.995" width="5.852" fill="#333"/>
<path d="m53.354 11.351c-2.726 0-4.695 0.757-5.908 2.27-1.212 1.513-1.819 3.582-1.819 6.208 0 1.274 0.15 2.433 0.45 3.47s0.75 1.932 1.35 2.682 1.35 1.334 2.25 1.744c0.9 0.414 1.951 0.619 3.151 0.619 0.65 0 1.207-0.012 1.669-0.037 0.462-0.023 0.869-0.074 1.219-0.15v-9.038h5.852v12.866c-0.7 0.274-1.826 0.566-3.375 0.881-1.551 0.312-3.464 0.47-5.74 0.47-1.95 0-3.72-0.301-5.308-0.899-1.588-0.602-2.944-1.477-4.07-2.627-1.125-1.149-1.994-2.563-2.606-4.238-0.613-1.676-0.919-3.588-0.919-5.739 0-2.176 0.337-4.101 1.013-5.777 0.675-1.674 1.6-3.095 2.776-4.257 1.175-1.162 2.556-2.044 4.145-2.644 1.588-0.601 3.282-0.901 5.083-0.901 1.225 0 2.332 0.082 3.319 0.244 0.988 0.163 1.838 0.35 2.551 0.563 0.713 0.212 1.3 0.431 1.763 0.656 0.462 0.225 0.794 0.4 0.994 0.525l-1.688 4.688c-0.801-0.425-1.72-0.793-2.757-1.105-1.039-0.318-2.17-0.474-3.395-0.474" fill="#333"/>
<polyline points="84.375 27.818 84.375 32.844 67.008 32.844 67.008 6.849 72.859 6.849 72.859 27.818" fill="#333"/>
<rect y="6.849" x="88.126" height="25.995" width="5.853" fill="#333"/>
<path d="m112.66 11.351c-2.727 0-4.695 0.757-5.909 2.27-1.213 1.513-1.817 3.582-1.817 6.208 0 1.274 0.148 2.433 0.449 3.47s0.75 1.932 1.35 2.682c0.603 0.75 1.353 1.334 2.252 1.744 0.9 0.414 1.949 0.619 3.15 0.619 0.65 0 1.206-0.012 1.67-0.037 0.463-0.023 0.867-0.076 1.219-0.15v-9.038h5.852v12.866c-0.7 0.274-1.825 0.566-3.376 0.881-1.55 0.312-3.464 0.47-5.738 0.47-1.95 0-3.72-0.301-5.308-0.901-1.59-0.6-2.945-1.475-4.07-2.625-1.125-1.149-1.994-2.563-2.607-4.238-0.611-1.676-0.918-3.588-0.918-5.739 0-2.176 0.338-4.101 1.014-5.777 0.675-1.674 1.599-3.095 2.775-4.257 1.174-1.162 2.557-2.044 4.145-2.644 1.588-0.601 3.281-0.901 5.082-0.901 1.227 0 2.332 0.082 3.32 0.244 0.988 0.163 1.838 0.35 2.551 0.563 0.713 0.212 1.3 0.431 1.764 0.656 0.462 0.225 0.792 0.4 0.993 0.525l-1.687 4.688c-0.803-0.425-1.722-0.793-2.758-1.105-1.01-0.318-2.15-0.474-3.37-0.474" fill="#333"/>
<polyline points="141.99 6.849 147.84 6.849 147.84 32.844 141.99 32.844 141.99 21.816 132.16 21.816 132.16 32.844 126.31 32.844 126.31 6.849 132.16 6.849 132.16 16.79 141.99 16.79" fill="#333"/>
<polyline points="173.12 6.849 173.12 11.838 165.28 11.838 165.28 32.844 159.43 32.844 159.43 11.838 151.59 11.838 151.59 6.849" fill="#333"/>
</svg>
