<?xml version="1.0" encoding="utf-8"?>
<!-- Generator: Adobe Illustrator 16.0.0, SVG Export Plug-In . SVG Version: 6.00 Build 0)  -->
<!DOCTYPE svg PUBLIC "-//W3C//DTD SVG 1.1//EN" "http://www.w3.org/Graphics/SVG/1.1/DTD/svg11.dtd">
<svg version="1.1" id="Layer_1" xmlns="http://www.w3.org/2000/svg" xmlns:xlink="http://www.w3.org/1999/xlink" x="0px" y="0px"
	 width="176px" height="38px" viewBox="0 0 176 38" enable-background="new 0 0 176 38" xml:space="preserve">
<path fill="#333333" d="M12.28,33.183c-1.425,0-2.845-0.044-4.257-0.131c-1.413-0.089-2.882-0.294-4.408-0.619V7.225
	c1.201-0.226,2.514-0.394,3.939-0.507c1.425-0.112,2.751-0.168,3.976-0.168c1.65,0,3.169,0.119,4.558,0.356
	c1.388,0.239,2.582,0.645,3.582,1.219c1,0.576,1.782,1.332,2.344,2.27c0.563,0.938,0.845,2.095,0.845,3.47
	c0,2.077-1.001,3.713-3.001,4.914c1.651,0.625,2.776,1.476,3.376,2.551s0.9,2.289,0.9,3.64c0,2.726-0.994,4.775-2.982,6.15
	C19.163,32.494,16.206,33.183,12.28,33.183 M9.317,17.052h2.851c1.8,0,3.088-0.231,3.863-0.694c0.775-0.461,1.163-1.205,1.163-2.231
	c0-1.05-0.4-1.788-1.2-2.213c-0.801-0.425-1.976-0.639-3.526-0.639c-0.501,0-1.039,0.007-1.613,0.02
	c-0.575,0.013-1.087,0.043-1.538,0.093V17.052z M9.317,21.517v6.715c0.425,0.05,0.887,0.087,1.388,0.111
	c0.5,0.025,1.05,0.039,1.65,0.039c1.75,0,3.163-0.25,4.239-0.751c1.075-0.502,1.613-1.425,1.613-2.777c0-1.2-0.45-2.056-1.351-2.569
	c-0.9-0.512-2.188-0.768-3.863-0.768H9.317z"/>
<rect x="28.822" y="6.849" fill="#333333" width="5.852" height="25.995"/>
<path fill="#333333" d="M53.354,11.351c-2.726,0-4.695,0.757-5.908,2.27c-1.212,1.513-1.819,3.582-1.819,6.208
	c0,1.275,0.15,2.433,0.45,3.47c0.3,1.037,0.75,1.931,1.35,2.682c0.6,0.75,1.35,1.333,2.25,1.744c0.9,0.414,1.951,0.619,3.151,0.619
	c0.65,0,1.207-0.012,1.669-0.038c0.462-0.023,0.869-0.073,1.219-0.15v-9.038h5.852v12.866c-0.7,0.275-1.826,0.567-3.375,0.881
	c-1.551,0.312-3.464,0.47-5.74,0.47c-1.95,0-3.72-0.301-5.308-0.9c-1.588-0.601-2.944-1.476-4.07-2.626
	c-1.125-1.15-1.994-2.563-2.606-4.239c-0.613-1.675-0.919-3.587-0.919-5.739c0-2.176,0.337-4.101,1.013-5.777
	c0.675-1.674,1.6-3.095,2.776-4.257c1.175-1.162,2.556-2.044,4.145-2.644c1.588-0.601,3.282-0.901,5.083-0.901
	c1.225,0,2.332,0.082,3.319,0.244c0.988,0.163,1.838,0.35,2.551,0.563c0.713,0.212,1.3,0.431,1.763,0.656
	c0.462,0.225,0.794,0.4,0.994,0.525l-1.688,4.688c-0.801-0.425-1.72-0.793-2.757-1.106C55.71,11.507,54.579,11.351,53.354,11.351"/>
<polyline fill="#333333" points="84.375,27.818 84.375,32.844 67.008,32.844 67.008,6.849 72.859,6.849 72.859,27.818 "/>
<rect x="88.126" y="6.849" fill="#333333" width="5.852" height="25.995"/>
<path fill="#333333" d="M112.658,11.351c-2.727,0-4.695,0.757-5.909,2.27c-1.213,1.513-1.818,3.582-1.818,6.208
	c0,1.275,0.149,2.433,0.45,3.47s0.75,1.931,1.35,2.682c0.602,0.75,1.352,1.333,2.252,1.744c0.9,0.414,1.949,0.619,3.15,0.619
	c0.65,0,1.206-0.012,1.67-0.038c0.462-0.023,0.867-0.075,1.219-0.15v-9.038h5.851v12.866c-0.7,0.275-1.825,0.567-3.376,0.881
	c-1.55,0.312-3.464,0.47-5.738,0.47c-1.95,0-3.72-0.301-5.308-0.902c-1.589-0.599-2.945-1.474-4.07-2.624s-1.995-2.563-2.607-4.239
	c-0.612-1.675-0.919-3.587-0.919-5.739c0-2.176,0.338-4.101,1.014-5.777c0.675-1.674,1.599-3.095,2.775-4.257
	c1.175-1.162,2.557-2.044,4.145-2.644c1.588-0.601,3.282-0.901,5.082-0.901c1.226,0,2.332,0.082,3.32,0.244
	c0.988,0.163,1.839,0.35,2.551,0.563c0.713,0.212,1.3,0.431,1.764,0.656c0.462,0.225,0.792,0.4,0.993,0.525l-1.687,4.688
	c-0.802-0.425-1.721-0.793-2.758-1.106C115.015,11.507,113.883,11.351,112.658,11.351"/>
<polyline fill="#333333" points="141.991,6.849 147.843,6.849 147.843,32.844 141.991,32.844 141.991,21.816 132.164,21.816 
	132.164,32.844 126.311,32.844 126.311,6.849 132.164,6.849 132.164,16.79 141.991,16.79 "/>
<polyline fill="#333333" points="173.124,6.849 173.124,11.838 165.285,11.838 165.285,32.844 159.433,32.844 159.433,11.838 
	151.594,11.838 151.594,6.849 "/>
</svg>
