<?xml version="1.0" encoding="UTF-8" standalone="no"?>
<!DOCTYPE svg  PUBLIC '-//W3C//DTD SVG 1.1//EN'  'http://www.w3.org/Graphics/SVG/1.1/DTD/svg11.dtd'>
<svg id="Layer_1" xmlns="http://www.w3.org/2000/svg" xml:space="preserve" height="76.82px" viewBox="-152.382 -19.159 480.836 76.82" width="480.84px" version="1.1" y="0px" x="0px" enable-background="new -152.382 -19.159 480.836 76.82">
<path class="black" d="m-127.8 57.239c-4.043 0-8.07-0.123-12.078-0.369-4.008-0.252-8.178-0.832-12.5-1.758v-71.502c3.406-0.639 7.127-1.115 11.172-1.438 4.045-0.32 7.803-0.48 11.279-0.48 4.68 0 8.99 0.338 12.93 1.012 3.936 0.674 7.322 1.826 10.162 3.455 2.834 1.633 5.055 3.777 6.648 6.439 1.594 2.66 2.393 5.939 2.393 9.842 0 5.889-2.838 10.537-8.514 13.938 4.684 1.777 7.875 4.188 9.578 7.24 1.703 3.047 2.555 6.49 2.555 10.318 0 7.734-2.82 13.553-8.457 17.453-5.65 3.899-14.04 5.85-25.17 5.85m-8.41-45.752h8.088c5.107 0 8.76-0.656 10.961-1.969 2.197-1.314 3.299-3.422 3.299-6.334 0-2.979-1.135-5.068-3.404-6.279-2.271-1.203-5.605-1.809-10.002-1.809-1.42 0-2.943 0.02-4.574 0.055-1.633 0.035-3.09 0.125-4.367 0.264v16.072zm0 12.664v19.043c1.207 0.148 2.518 0.252 3.939 0.322 1.42 0.07 2.98 0.105 4.684 0.105 4.965 0 8.973-0.709 12.023-2.133 3.049-1.412 4.574-4.043 4.574-7.869 0-3.404-1.277-5.836-3.83-7.295-2.553-1.447-6.207-2.178-10.959-2.178h-10.432v0.005z"/>
<rect y="-17.454" x="-80.88" height="73.738" class="black" width="16.6"/>
<path class="black" d="m-11.292-4.687c-7.73 0-13.318 2.145-16.758 6.438-3.441 4.293-5.16 10.16-5.16 17.607 0 3.617 0.426 6.902 1.273 9.844 0.854 2.945 2.129 5.484 3.832 7.605 1.701 2.127 3.832 3.779 6.385 4.949 2.557 1.174 5.533 1.758 8.939 1.758 1.842 0 3.42-0.035 4.734-0.105 1.313-0.068 2.465-0.215 3.459-0.43v-25.646h16.598v36.496c-1.984 0.783-5.176 1.617-9.576 2.502-4.398 0.887-9.824 1.33-16.279 1.33-5.535 0-10.551-0.85-15.057-2.555-4.506-1.709-8.354-4.184-11.545-7.447s-5.658-7.271-7.395-12.023c-1.74-4.752-2.607-10.178-2.607-16.283 0-6.172 0.957-11.627 2.875-16.383 1.914-4.754 4.539-8.779 7.871-12.076 3.336-3.299 7.25-5.797 11.758-7.5 4.502-1.701 9.311-2.553 14.418-2.553 3.473 0 6.611 0.23 9.416 0.689 2.803 0.463 5.215 0.996 7.236 1.598 2.023 0.6 3.688 1.223 5 1.859 1.314 0.639 2.25 1.137 2.82 1.492l-4.786 13.301c-2.271-1.207-4.877-2.25-7.82-3.139-2.945-0.884-6.158-1.328-9.631-1.328"/>
<polyline points="76.704 42.022 76.704 56.284 27.438 56.284 27.438 -17.454 44.04 -17.454 44.04 42.022" class="yellow"/>
<rect y="-17.454" x="87.343" height="73.738" class="yellow" width="16.6"/>
<path class="yellow" d="m156.93-4.687c-7.734 0-13.318 2.145-16.76 6.438-3.438 4.293-5.166 10.16-5.166 17.607 0 3.617 0.432 6.902 1.279 9.844 0.854 2.945 2.131 5.484 3.83 7.605 1.705 2.127 3.832 3.779 6.387 4.949 2.555 1.174 5.533 1.758 8.939 1.758 1.842 0 3.418-0.043 4.73-0.105 1.313-0.074 2.461-0.215 3.457-0.43v-25.646h16.6v36.496c-1.986 0.783-5.18 1.617-9.574 2.502-4.4 0.887-9.826 1.33-16.283 1.33-5.531 0-10.553-0.85-15.055-2.555-4.51-1.705-8.354-4.184-11.547-7.447-3.191-3.264-5.66-7.271-7.395-12.023-1.74-4.752-2.607-10.178-2.607-16.283 0-6.172 0.955-11.627 2.871-16.383 1.916-4.754 4.541-8.779 7.875-12.076 3.334-3.299 7.254-5.797 11.76-7.5 4.504-1.701 9.311-2.553 14.418-2.553 3.473 0 6.613 0.23 9.418 0.689 2.805 0.463 5.211 0.996 7.236 1.598 2.021 0.6 3.686 1.223 4.998 1.859 1.313 0.639 2.25 1.137 2.818 1.492l-4.8 13.301c-2.273-1.207-4.881-2.25-7.822-3.139-2.95-0.884-6.15-1.328-9.63-1.328"/>
<polyline points="240.14 -17.454 256.74 -17.454 256.74 56.284 240.14 56.284 240.14 25.001 212.26 25.001 212.26 56.284 195.66 56.284 195.66 -17.454 212.26 -17.454 212.26 10.741 240.14 10.741" class="yellow"/>
<polyline points="328.45 -17.454 328.45 -3.304 306.22 -3.304 306.22 56.284 289.62 56.284 289.62 -3.304 267.38 -3.304 267.38 -17.454" class="yellow"/>
</svg>
