<?xml version="1.0" encoding="UTF-8" standalone="no"?>
<!DOCTYPE svg  PUBLIC '-//W3C//DTD SVG 1.1//EN'  'http://www.w3.org/Graphics/SVG/1.1/DTD/svg11.dtd'>
<svg id="Layer_1" xmlns="http://www.w3.org/2000/svg" xml:space="preserve" height="36.283px" viewBox="0 0 36.283 36.283" width="36.283px" version="1.1" y="0px" x="0px" enable-background="new 0 0 36.283 36.283">
<path fill="#B7B7B7" clip-rule="evenodd" d="m36.354 16.866v2.692c-0.065 0.031-0.063 0.093-0.067 0.15-0.256 3.168-1.293 6.063-3.063 8.693-1.482 2.202-3.377 3.981-5.649 5.35-2.093 1.261-4.352 2.07-6.774 2.417-0.438 0.063-0.885 0.055-1.312 0.186h-2.693c-0.035-0.087-0.114-0.065-0.181-0.072-2.98-0.271-5.747-1.185-8.242-2.84-4.541-3.014-7.251-7.221-8.11-12.612-0.064-0.399-0.041-0.814-0.191-1.2v-2.764c0.081-0.041 0.062-0.119 0.068-0.186 0.261-3.057 1.208-5.886 2.918-8.429 3.009-4.478 7.201-7.136 12.534-7.989 0.424-0.068 0.861-0.054 1.275-0.192h2.692c0.027 0.07 0.09 0.064 0.146 0.068 1.331 0.093 2.634 0.345 3.901 0.751 4.439 1.425 7.862 4.148 10.253 8.146 1.217 2.035 1.977 4.242 2.31 6.594 0.059 0.413 0.048 0.836 0.185 1.237zm-18.326-10.42c-0.437-0.004-1.06 0.059-1.67 0.202-2.906 0.68-5 2.38-6.211 5.1-0.812 1.821-1.026 3.715-0.335 5.646 0.463 1.293 1.077 2.514 1.78 3.69 1.842 3.079 4.049 5.89 6.369 8.617 0.226 0.267 0.32 0.21 0.514-0.016 1.444-1.671 2.814-3.401 4.108-5.19 1.344-1.856 2.59-3.775 3.541-5.87 0.657-1.45 1.044-2.933 0.818-4.561-0.597-4.331-4.324-7.61-8.914-7.618z" fill-rule="evenodd"/>
<path fill="#FEFEFE" clip-rule="evenodd" d="m19.488 36.354c0.427-0.131 0.874-0.123 1.312-0.186 2.423-0.347 4.682-1.156 6.774-2.417 2.272-1.368 4.167-3.147 5.649-5.35 1.771-2.63 2.808-5.525 3.063-8.693 0.005-0.058 0.002-0.119 0.067-0.15 0 5.504-0.003 11.008 0.007 16.512 0 0.243-0.048 0.291-0.291 0.291-5.526-0.009-11.053-0.007-16.581-0.007z" fill-rule="evenodd"/>
<path fill="#FEFEFE" clip-rule="evenodd" d="m16.866 0.071c-0.414 0.138-0.851 0.124-1.275 0.192-5.334 0.852-9.525 3.51-12.534 7.988-1.709 2.543-2.657 5.373-2.918 8.429-0.006 0.067 0.013 0.145-0.068 0.186 0-5.498 0.002-10.997-0.007-16.495 0-0.255 0.052-0.308 0.308-0.308 5.498 0.01 10.996 0.008 16.494 0.008z" fill-rule="evenodd"/>
<path fill="#FEFEFE" clip-rule="evenodd" d="m36.354 16.866c-0.138-0.401-0.127-0.824-0.186-1.236-0.333-2.353-1.093-4.56-2.31-6.594-2.391-3.998-5.813-6.721-10.253-8.146-1.268-0.407-2.57-0.658-3.901-0.751-0.057-0.004-0.119 0.002-0.146-0.068 5.498 0 10.996 0.002 16.494-0.007 0.256 0 0.309 0.052 0.309 0.308-0.009 5.498-0.007 10.996-0.007 16.494z" fill-rule="evenodd"/>
<path fill="#FEFEFE" clip-rule="evenodd" d="m0.071 19.63c0.151 0.386 0.127 0.801 0.191 1.2 0.858 5.392 3.569 9.599 8.11 12.612 2.495 1.655 5.262 2.569 8.242 2.84 0.067 0.007 0.146-0.015 0.181 0.072-5.48 0-10.96-0.003-16.44 0.007-0.243 0-0.291-0.048-0.291-0.291 0.009-5.479 0.007-10.96 0.007-16.44z" fill-rule="evenodd"/>
<path fill="#5B5755" clip-rule="evenodd" d="m18.028 6.446c4.59 0.007 8.317 3.287 8.915 7.618 0.226 1.628-0.161 3.111-0.818 4.561-0.951 2.094-2.197 4.013-3.541 5.87-1.294 1.789-2.664 3.52-4.108 5.19-0.194 0.226-0.288 0.282-0.514 0.016-2.319-2.728-4.526-5.538-6.369-8.617-0.703-1.176-1.317-2.396-1.78-3.69-0.691-1.931-0.477-3.825 0.335-5.646 1.211-2.72 3.306-4.42 6.211-5.1 0.609-0.143 1.232-0.206 1.669-0.202zm-6.027 8.836c0.023 3.439 2.809 6.206 6.236 6.191 3.412-0.014 6.202-2.815 6.187-6.212-0.017-3.437-2.813-6.213-6.241-6.193-3.422 0.019-6.204 2.817-6.182 6.214z" fill-rule="evenodd"/>
<path fill="#FEFEFE" clip-rule="evenodd" d="m12.001 15.282c-0.023-3.397 2.76-6.194 6.182-6.214 3.427-0.02 6.224 2.756 6.241 6.193 0.016 3.396-2.774 6.198-6.187 6.212-3.426 0.014-6.213-2.752-6.236-6.191zm4.093-2.88c0.378-0.218 0.743-0.365 1.133-0.399 0.463-0.041 0.964-0.052 1.24 0.404 0.264 0.436 0.079 0.872-0.19 1.254-0.265 0.376-0.558 0.732-0.825 1.106-0.421 0.588-0.579 1.253-0.557 1.971 0.006 0.193 0.074 0.267 0.275 0.262 0.46-0.013 0.921-0.013 1.381 0 0.223 0.006 0.316-0.05 0.306-0.294-0.026-0.618 0.212-1.147 0.598-1.621 0.299-0.365 0.607-0.725 0.878-1.11 0.813-1.158 0.584-2.641-0.524-3.331-1.139-0.71-3.049-0.456-4.086 0.104-0.114 0.062-0.105 0.132-0.073 0.231 0.144 0.46 0.287 0.92 0.444 1.423zm1.764 5.285c-0.75-0.013-1.295 0.512-1.321 1.272-0.026 0.774 0.507 1.344 1.27 1.358 0.738 0.015 1.306-0.533 1.324-1.277 0.019-0.78-0.507-1.339-1.273-1.353z" fill-rule="evenodd"/>
<path fill="#7C7C7C" clip-rule="evenodd" d="m16.094 12.402c-0.157-0.502-0.299-0.963-0.446-1.422-0.032-0.1-0.041-0.17 0.073-0.231 1.037-0.56 2.948-0.814 4.086-0.104 1.108 0.69 1.338 2.173 0.524 3.331-0.271 0.386-0.579 0.745-0.878 1.11-0.386 0.473-0.624 1.002-0.598 1.621 0.01 0.244-0.083 0.3-0.306 0.294-0.46-0.014-0.921-0.013-1.381 0-0.201 0.005-0.269-0.069-0.275-0.262-0.022-0.717 0.136-1.382 0.557-1.971 0.268-0.374 0.561-0.73 0.825-1.106 0.269-0.382 0.454-0.818 0.19-1.254-0.276-0.456-0.777-0.445-1.24-0.404-0.388 0.033-0.753 0.18-1.131 0.398z" fill-rule="evenodd"/>
<path fill="#7C7C7C" clip-rule="evenodd" d="m17.858 17.687c0.766 0.014 1.292 0.573 1.272 1.353-0.018 0.744-0.585 1.292-1.324 1.277-0.763-0.014-1.296-0.584-1.27-1.358 0.027-0.76 0.572-1.285 1.322-1.272z" fill-rule="evenodd"/>
</svg>
