<?xml version="1.0" encoding="utf-8"?>
<!-- Generator: Adobe Illustrator 16.0.0, SVG Export Plug-In . SVG Version: 6.00 Build 0)  -->
<!DOCTYPE svg PUBLIC "-//W3C//DTD SVG 1.1//EN" "http://www.w3.org/Graphics/SVG/1.1/DTD/svg11.dtd">
<svg fill="#FFF" version="1.1" id="Layer_1" xmlns="http://www.w3.org/2000/svg" xmlns:xlink="http://www.w3.org/1999/xlink" x="0px" y="0px"
	 width="176px" height="38px" viewBox="0 0 176 38" enable-background="new 0 0 176 38" xml:space="preserve">
<path d="M16.09,31.912c-1.348,0-2.69-0.041-4.026-0.123c-1.336-0.084-2.726-0.277-4.167-0.586V7.369
	c1.135-0.213,2.376-0.372,3.724-0.479s2.601-0.16,3.76-0.16c1.56,0,2.997,0.113,4.31,0.337c1.312,0.225,2.441,0.609,3.387,1.152
	c0.945,0.544,1.685,1.259,2.216,2.146s0.798,1.98,0.798,3.281c0,1.963-0.946,3.512-2.838,4.646c1.561,0.592,2.625,1.396,3.193,2.413
	c0.567,1.016,0.851,2.163,0.851,3.439c0,2.578-0.94,4.518-2.819,5.818C22.599,31.262,19.802,31.912,16.09,31.912 M13.288,16.661
	h2.696c1.702,0,2.92-0.218,3.653-0.656s1.1-1.141,1.1-2.111c0-0.993-0.378-1.69-1.135-2.093c-0.757-0.401-1.868-0.603-3.334-0.603
	c-0.473,0-0.981,0.006-1.525,0.018c-0.544,0.012-1.029,0.042-1.455,0.088V16.661z M13.288,20.883v6.348
	c0.402,0.049,0.839,0.084,1.313,0.107c0.473,0.023,0.993,0.035,1.561,0.035c1.655,0,2.991-0.236,4.008-0.711
	c1.016-0.471,1.525-1.348,1.525-2.623c0-1.135-0.426-1.945-1.277-2.431c-0.851-0.483-2.069-0.726-3.653-0.726H13.288z"/>
<rect x="31.731" y="7.014" width="5.533" height="24.58"/>
<path d="M54.927,11.27c-2.577,0-4.439,0.715-5.586,2.146c-1.147,1.431-1.72,3.387-1.72,5.869
	c0,1.206,0.142,2.301,0.425,3.281c0.284,0.982,0.709,1.828,1.277,2.535c0.567,0.709,1.277,1.26,2.128,1.65
	c0.852,0.391,1.845,0.586,2.98,0.586c0.614,0,1.14-0.012,1.578-0.035s0.822-0.072,1.153-0.143v-8.549h5.533v12.166
	c-0.662,0.26-1.726,0.539-3.192,0.834c-1.467,0.295-3.275,0.443-5.427,0.443c-1.845,0-3.517-0.283-5.019-0.852
	s-2.784-1.395-3.848-2.482c-1.064-1.088-1.886-2.424-2.465-4.008c-0.58-1.584-0.869-3.393-0.869-5.428
	c0-2.057,0.319-3.876,0.958-5.461c0.638-1.584,1.513-2.926,2.624-4.025c1.112-1.1,2.417-1.933,3.919-2.5
	c1.501-0.567,3.104-0.851,4.806-0.851c1.158,0,2.204,0.077,3.139,0.23c0.934,0.154,1.738,0.332,2.412,0.532s1.229,0.408,1.667,0.62
	c0.438,0.213,0.75,0.379,0.94,0.497l-1.596,4.434c-0.757-0.402-1.626-0.75-2.607-1.046C57.156,11.418,56.085,11.27,54.927,11.27"/>
<polyline points="84.259,26.84 84.259,31.594 67.837,31.594 67.837,7.014 73.371,7.014 73.371,26.84 "/>
<rect x="87.805" y="7.014" width="5.534" height="24.58"/>
<path d="M111.002,11.27c-2.578,0-4.439,0.715-5.587,2.146c-1.146,1.431-1.721,3.387-1.721,5.869
	c0,1.206,0.143,2.301,0.426,3.281c0.284,0.982,0.71,1.828,1.277,2.535c0.568,0.709,1.277,1.26,2.128,1.65
	c0.852,0.391,1.845,0.586,2.98,0.586c0.614,0,1.14-0.014,1.577-0.035c0.438-0.025,0.821-0.072,1.152-0.143v-8.549h5.534v12.166
	c-0.663,0.26-1.727,0.539-3.192,0.834c-1.467,0.295-3.275,0.443-5.427,0.443c-1.844,0-3.518-0.283-5.019-0.852
	c-1.503-0.568-2.784-1.395-3.849-2.482c-1.063-1.088-1.886-2.424-2.465-4.008s-0.869-3.393-0.869-5.428
	c0-2.057,0.318-3.876,0.957-5.461c0.639-1.584,1.514-2.926,2.625-4.025c1.112-1.1,2.418-1.933,3.92-2.5
	c1.501-0.567,3.103-0.851,4.806-0.851c1.158,0,2.205,0.077,3.139,0.23c0.935,0.154,1.738,0.332,2.412,0.532s1.229,0.408,1.667,0.62
	c0.437,0.213,0.75,0.379,0.939,0.497l-1.595,4.434c-0.758-0.402-1.627-0.75-2.608-1.046C113.229,11.418,112.16,11.27,111.002,11.27"
	/>
<polyline points="138.738,7.014 144.27,7.014 144.27,31.594 138.738,31.594 138.738,21.166 129.444,21.166
	129.444,31.594 123.912,31.594 123.912,7.014 129.444,7.014 129.444,16.413 138.738,16.413 "/>
<polyline points="168.176,7.014 168.176,11.731 160.763,11.731 160.763,31.594 155.23,31.594 155.23,11.731
	147.816,11.731 147.816,7.014 "/>
</svg>
